<?xml version="1.0" encoding="utf-8"?>
<!-- Generator: Adobe Illustrator 24.1.2, SVG Export Plug-In . SVG Version: 6.00 Build 0)  -->
<svg version="1.1" id="Слой_1" xmlns="http://www.w3.org/2000/svg" xmlns:xlink="http://www.w3.org/1999/xlink" x="0px" y="0px"
	 width="1155px" height="363px" viewBox="0 0 1155 363" style="enable-background:new 0 0 1155 363;" xml:space="preserve">
<style type="text/css">
	.st0{fill:url(#SVGID_1_);}
</style>
<linearGradient id="SVGID_1_" gradientUnits="userSpaceOnUse" x1="-10.3719" y1="182.4059" x2="1150.7246" y2="183.2039" gradientTransform="matrix(1 0 0 -1 0 364.0019)">
	<stop  offset="8.333330e-02" style="stop-color:#FCDED1;stop-opacity:0"/>
	<stop  offset="0.3229" style="stop-color:#FCDED1;stop-opacity:0.6"/>
	<stop  offset="0.7135" style="stop-color:#FCDED1;stop-opacity:0"/>
	<stop  offset="0.9115" style="stop-color:#FCDED1;stop-opacity:0.2"/>
</linearGradient>
<path class="st0" d="M1145.1,118.2c-7.7,4.3-19,7.3-33.9,8.9c-14.8,1.5-32.3,1.4-52,0c-39.3-2.7-86.2-10.6-134.1-20.6
	c-95.9-20.1-194.7-48.7-244.9-62l-5.1,19.3c49.5,13.1,149.3,42,245.9,62.2c48.3,10.1,96.2,18.2,136.8,21c20.3,1.4,39.1,1.5,55.4-0.1
	c16.1-1.6,30.6-5.1,41.7-11.3L1145.1,118.2z M680.2,44.5C630.3,31.3,546.3,9.9,457.8,2.6c-88.2-7.3-182.8-1-252.6,43.1l10.7,16.9
	C280,22.1,369.1,15.3,456.1,22.5c86.6,7.2,169.2,28.1,219,41.3L680.2,44.5z M205.2,45.7C135.9,89.4,84.8,167.9,51.2,234.2
	c-16.9,33.3-29.6,64-38,86.3c-4.2,11.2-7.4,20.3-9.5,26.6c-1.1,3.2-1.9,5.6-2.4,7.3c-0.3,0.8-0.5,1.5-0.6,1.9
	c-0.1,0.2-0.1,0.4-0.2,0.5c0,0.1,0,0.1,0,0.1c0,0,0,0,0,0c0,0,0,0,0,0c0,0,0,0,9.6,2.9c9.6,2.9,9.6,2.9,9.6,2.9c0,0,0,0,0,0
	c0,0,0,0,0,0c0,0,0-0.1,0-0.1c0-0.1,0.1-0.2,0.1-0.4c0.1-0.4,0.3-1,0.6-1.8c0.5-1.6,1.3-4,2.3-7c2-6.1,5.1-15,9.3-25.9
	c8.2-21.8,20.6-51.8,37.1-84.3c33.2-65.5,82.3-139.9,146.9-180.7L205.2,45.7z"/>
</svg>
