<?xml version="1.0" encoding="utf-8"?>
<!-- Generator: Adobe Illustrator 24.1.2, SVG Export Plug-In . SVG Version: 6.00 Build 0)  -->
<svg version="1.1" id="Слой_1" xmlns="http://www.w3.org/2000/svg" xmlns:xlink="http://www.w3.org/1999/xlink" x="0px" y="0px"
	 width="370px" height="122px" viewBox="0 0 370 122" style="enable-background:new 0 0 370 122;" xml:space="preserve">
<style type="text/css">
	.st0{fill:url(#SVGID_1_);}
</style>
<linearGradient id="SVGID_1_" gradientUnits="userSpaceOnUse" x1="3.6543" y1="63.0098" x2="365.2254" y2="63.2585" gradientTransform="matrix(1 0 0 -1 0 124.0019)">
	<stop  offset="8.333330e-02" style="stop-color:#FCDED1;stop-opacity:0"/>
	<stop  offset="0.3229" style="stop-color:#FCDED1;stop-opacity:0.6"/>
	<stop  offset="0.7135" style="stop-color:#FCDED1;stop-opacity:0"/>
	<stop  offset="0.9115" style="stop-color:#FCDED1;stop-opacity:0.2"/>
</linearGradient>
<path class="st0" d="M217.9,23.7l2.6-9.7l0,0L217.9,23.7z M72.5,23.7l-5.3-8.5L72.5,23.7z M360.1,37.7c-1.2,0.7-3.7,1.5-7.9,1.9
	c-4.1,0.4-9.1,0.4-15,0c-11.8-0.8-26-3.2-40.8-6.3c-29.6-6.2-60.1-15-75.9-19.2l-5.1,19.3c15.2,4,46.6,13.1,76.9,19.5
	c15.2,3.2,30.4,5.8,43.5,6.7c6.6,0.5,12.8,0.5,18.4-0.1c5.5-0.6,11-1.8,15.7-4.4L360.1,37.7z M220.5,14.1
	C204.9,10,178.2,3.2,150,0.8c-27.9-2.3-59.2-0.5-82.9,14.5l10.7,16.9c18-11.4,43.9-13.7,70.6-11.4c26.3,2.2,51.6,8.6,67,12.6
	L220.5,14.1z M67.1,15.3C43.9,29.9,27.3,55.8,16.7,76.7c-5.4,10.7-9.4,20.4-12.1,27.6c-1.3,3.6-2.4,6.5-3,8.5
	c-0.3,1-0.6,1.8-0.8,2.4c-0.1,0.3-0.2,0.5-0.2,0.7c0,0.1,0,0.1-0.1,0.2c0,0,0,0,0,0.1c0,0,0,0,0,0c0,0,0,0,0,0c0,0,0,0,9.6,2.9
	c9.6,2.9,9.6,2.9,9.6,2.9c0,0,0,0,0,0c0,0,0,0,0,0c0,0,0,0,0,0c0,0,0-0.1,0-0.1c0-0.1,0.1-0.3,0.2-0.5c0.1-0.5,0.4-1.2,0.7-2.1
	c0.6-1.8,1.5-4.5,2.8-7.8c2.5-6.6,6.3-15.7,11.3-25.6c10.2-20.1,24.8-41.9,43.3-53.6L67.1,15.3z"/>
</svg>
