<?xml version="1.0" encoding="utf-8"?>
<!-- Generator: Adobe Illustrator 24.1.2, SVG Export Plug-In . SVG Version: 6.00 Build 0)  -->
<svg version="1.1" id="Слой_1"
	xmlns="http://www.w3.org/2000/svg"
	xmlns:xlink="http://www.w3.org/1999/xlink" x="0px" y="0px" width="48px" height="48px" viewBox="0 0 48 48" enable-background="new 0 0 48 48" xml:space="preserve">
	<path fill="#282A33" d="M48,24c0,13.25-10.75,24-24,24S0,37.25,0,24S10.75,0,24,0S48,10.75,48,24z M0.96,24
	c0,12.72,10.32,23.04,23.04,23.04S47.04,36.72,47.04,24S36.72,0.96,24,0.96S0.96,11.28,0.96,24z"/>
	<path fill="#D2233C" d="M48,24c0,13.25-10.75,24-24,24S0,37.25,0,24S10.75,0,24,0S48,10.75,48,24z M0.96,24
	c0,12.72,10.32,23.04,23.04,23.04S47.04,36.72,47.04,24S36.72,0.96,24,0.96S0.96,11.28,0.96,24z"/>
	<path fill="none" stroke="#282A33" stroke-width="2" d="M24,36V12.37"/>
	<path fill="none" stroke="#282A33" stroke-width="1.9" d="M15,21.29L24,12l9,9.29"/>
</svg>
